# xmcd
#
# Track frame offsets:
#	150
#	70974
#	107377
#	126704
#	160733
#
# Disc length: 2349 seconds
#
# Revision: 0
# Processed by: cddbd v1.5.2PL0 Copyright (c) Steve Scherf et al.
# Submitted via: audiograbber 1.83.01
#
DISCID=40092b05
DTITLE=Grateful Dead - 92-02-24 Oakland Coliseum Arena, Oakland CA
DYEAR=1900
DGENRE=
TTITLE0=Space
TTITLE1=Wave To The Wind
TTITLE2=The Other One
TTITLE3=So Many Roads
TTITLE4=Turn On Your Lovelight
EXTD=
EXTT0=
EXTT1=
EXTT2=
EXTT3=
EXTT4=
PLAYORDER=
